<svg width="231" height="70" viewBox="0 0 231 70" fill="none" xmlns="http://www.w3.org/2000/svg">
<g filter="url(#filter0_d_3013_10)">
<ellipse cx="34.7999" cy="22.5246" rx="16.7999" ry="16.2287" fill="#FF5E3A"/>
</g>
<path d="M40.7906 24.8859L41.5 20.3863H37.0625V17.4676C37.0625 16.2363 37.6813 15.0354 39.6688 15.0354H41.6875V11.2047C41.6875 11.2047 39.8563 10.9006 38.1063 10.9006C34.45 10.9006 32.0625 13.0562 32.0625 16.9569V20.3863H28V24.8859H32.0625V35.764C32.8781 35.8886 33.7125 35.9525 34.5625 35.9525C35.4125 35.9525 36.2469 35.8886 37.0625 35.764V24.8859H40.7906Z" fill="white"/>
<g filter="url(#filter1_d_3013_10)">
<ellipse cx="88.3999" cy="22.3389" rx="16.7999" ry="16.2287" fill="#FF5E3A"/>
</g>
<path fill-rule="evenodd" clip-rule="evenodd" d="M88.5208 19.2436L88.5544 19.7822L87.9948 19.7162C85.9579 19.4634 84.1784 18.606 82.6676 17.166L81.9289 16.4515L81.7386 16.9792C81.3358 18.1553 81.5932 19.3974 82.4325 20.2329C82.8802 20.6945 82.7795 20.7605 82.0072 20.4857C81.7386 20.3977 81.5036 20.3318 81.4812 20.3648C81.4029 20.4417 81.6715 21.442 81.8841 21.8377C82.1751 22.3873 82.7683 22.926 83.4174 23.2447L83.9658 23.4975L83.3167 23.5085C82.6899 23.5085 82.6676 23.5195 82.7347 23.7504C82.9585 24.4649 83.8427 25.2233 84.8275 25.5531L85.5214 25.7839L84.9171 26.1357C84.0217 26.6413 82.9697 26.9271 81.9177 26.9491C81.4141 26.9601 81 27.0041 81 27.037C81 27.147 82.3654 27.7625 83.16 28.0044C85.5438 28.7189 88.3753 28.4111 90.5017 27.1909C92.0126 26.3225 93.5235 24.5968 94.2285 22.926C94.6091 22.0356 94.9896 20.4087 94.9896 19.6283C94.9896 19.1226 95.0232 19.0567 95.6499 18.4521C96.0192 18.1004 96.3662 17.7156 96.4333 17.6057C96.5452 17.3969 96.534 17.3969 95.9633 17.5837C95.012 17.9135 94.8777 17.8695 95.3477 17.3749C95.6947 17.0231 96.1087 16.3856 96.1087 16.1987C96.1087 16.1657 95.9409 16.2207 95.7506 16.3196C95.5492 16.4295 95.1015 16.5944 94.7657 16.6934L94.1614 16.8802L93.613 16.5175C93.3108 16.3196 92.8855 16.0998 92.6617 16.0338C92.0909 15.8799 91.218 15.9019 90.7032 16.0778C89.3042 16.5724 88.4201 17.8475 88.5208 19.2436Z" fill="white"/>
<g filter="url(#filter2_d_3013_10)">
<ellipse cx="142" cy="22.3367" rx="16.7999" ry="16.2287" fill="#FF5E3A"/>
</g>
<path fill-rule="evenodd" clip-rule="evenodd" d="M141.534 13.9844C139.217 13.9844 138.926 13.9942 138.016 14.0345C137.107 14.075 136.487 14.2149 135.944 14.4203C135.383 14.6323 134.907 14.916 134.433 15.3776C133.958 15.8391 133.666 16.3023 133.448 16.8482C133.236 17.3763 133.092 17.9798 133.051 18.8633C133.011 19.7489 133 20.0321 133 22.2869C133 24.5417 133.01 24.8238 133.052 25.7094C133.093 26.5933 133.237 27.1966 133.448 27.7245C133.666 28.2706 133.958 28.7338 134.432 29.1953C134.906 29.6571 135.382 29.9414 135.943 30.1535C136.486 30.3588 137.107 30.4988 138.015 30.5392C138.925 30.5795 139.216 30.5894 141.533 30.5894C143.851 30.5894 144.141 30.5795 145.051 30.5392C145.959 30.4988 146.58 30.3588 147.123 30.1535C147.684 29.9414 148.16 29.6571 148.634 29.1953C149.108 28.7338 149.4 28.2706 149.619 27.7247C149.828 27.1966 149.972 26.5931 150.015 25.7096C150.056 24.824 150.067 24.5417 150.067 22.2869C150.067 20.0321 150.056 19.7491 150.015 18.8635C149.972 17.9796 149.828 17.3763 149.619 16.8484C149.4 16.3023 149.108 15.8391 148.634 15.3776C148.159 14.9158 147.684 14.6321 147.123 14.4203C146.579 14.2149 145.958 14.075 145.05 14.0345C144.14 13.9942 143.85 13.9844 141.531 13.9844H141.534ZM140.769 15.4805C140.996 15.4802 141.249 15.4805 141.534 15.4805C143.813 15.4805 144.083 15.4885 144.982 15.5283C145.814 15.5653 146.266 15.7005 146.567 15.8142C146.965 15.9647 147.249 16.1446 147.547 16.4351C147.846 16.7257 148.031 17.0025 148.186 17.3899C148.303 17.6823 148.442 18.1216 148.48 18.9311C148.521 19.8063 148.53 20.0692 148.53 22.285C148.53 24.5007 148.521 24.7636 148.48 25.6388C148.442 26.4483 148.303 26.8877 148.186 27.18C148.031 27.5674 147.846 27.8433 147.547 28.1337C147.249 28.4243 146.965 28.6042 146.567 28.7547C146.266 28.8688 145.814 29.0038 144.982 29.0408C144.083 29.0806 143.813 29.0892 141.534 29.0892C139.256 29.0892 138.985 29.0806 138.086 29.0408C137.254 29.0034 136.802 28.8681 136.501 28.7545C136.103 28.604 135.819 28.4241 135.52 28.1336C135.221 27.843 135.036 27.5669 134.881 27.1793C134.765 26.887 134.625 26.4476 134.588 25.6381C134.547 24.7629 134.538 24.5 134.538 22.2829C134.538 20.0658 134.547 19.8042 134.588 18.929C134.626 18.1195 134.765 17.6802 134.881 17.3875C135.036 17.0001 135.221 16.7233 135.52 16.4327C135.819 16.1421 136.103 15.9623 136.501 15.8114C136.802 15.6973 137.254 15.5623 138.086 15.5252C138.873 15.4906 139.178 15.4802 140.769 15.4785V15.4805ZM146.089 16.8591C145.524 16.8591 145.065 17.3048 145.065 17.8551C145.065 18.4051 145.524 18.8514 146.089 18.8514C146.655 18.8514 147.113 18.4051 147.113 17.8551C147.113 17.305 146.655 16.8591 146.089 16.8591ZM141.534 18.0232C139.114 18.0232 137.152 19.9322 137.152 22.2869C137.152 24.6415 139.114 26.5497 141.534 26.5497C143.954 26.5497 145.916 24.6415 145.916 22.2869C145.916 19.9322 143.954 18.0232 141.534 18.0232ZM141.534 19.5194C143.105 19.5194 144.379 20.7583 144.379 22.2869C144.379 23.8152 143.105 25.0544 141.534 25.0544C139.963 25.0544 138.69 23.8152 138.69 22.2869C138.69 20.7583 139.963 19.5194 141.534 19.5194Z" fill="white"/>
<g filter="url(#filter3_d_3013_10)">
<ellipse cx="195.8" cy="21.561" rx="16.7999" ry="16.2287" fill="#FF5E3A"/>
</g>
<path fill-rule="evenodd" clip-rule="evenodd" d="M202.201 16.2872C202.935 16.4833 203.514 17.061 203.71 17.7946C204.067 19.1242 204.067 21.8984 204.067 21.8984C204.067 21.8984 204.067 24.6725 203.71 26.0021C203.514 26.7358 202.935 27.3134 202.201 27.5096C200.87 27.8658 195.533 27.8658 195.533 27.8658C195.533 27.8658 190.196 27.8658 188.866 27.5096C188.131 27.3134 187.553 26.7358 187.357 26.0021C187 24.6725 187 21.8984 187 21.8984C187 21.8984 187 19.1242 187.357 17.7946C187.553 17.061 188.131 16.4833 188.866 16.2872C190.196 15.9309 195.533 15.9309 195.533 15.9309C195.533 15.9309 200.87 15.9309 202.201 16.2872ZM193.933 19.5632V24.7523L198.2 22.1579L193.933 19.5632Z" fill="white"/>
<defs>
<filter id="filter0_d_3013_10" x="0" y="1.2959" width="69.5999" height="68.4575" filterUnits="userSpaceOnUse" color-interpolation-filters="sRGB">
<feFlood flood-opacity="0" result="BackgroundImageFix"/>
<feColorMatrix in="SourceAlpha" type="matrix" values="0 0 0 0 0 0 0 0 0 0 0 0 0 0 0 0 0 0 127 0" result="hardAlpha"/>
<feOffset dy="13"/>
<feGaussianBlur stdDeviation="9"/>
<feColorMatrix type="matrix" values="0 0 0 0 0.0658854 0 0 0 0 0.0730469 0 0 0 0 0.1375 0 0 0 0.08 0"/>
<feBlend mode="normal" in2="BackgroundImageFix" result="effect1_dropShadow_3013_10"/>
<feBlend mode="normal" in="SourceGraphic" in2="effect1_dropShadow_3013_10" result="shape"/>
</filter>
<filter id="filter1_d_3013_10" x="53.6" y="1.11011" width="69.5999" height="68.4575" filterUnits="userSpaceOnUse" color-interpolation-filters="sRGB">
<feFlood flood-opacity="0" result="BackgroundImageFix"/>
<feColorMatrix in="SourceAlpha" type="matrix" values="0 0 0 0 0 0 0 0 0 0 0 0 0 0 0 0 0 0 127 0" result="hardAlpha"/>
<feOffset dy="13"/>
<feGaussianBlur stdDeviation="9"/>
<feColorMatrix type="matrix" values="0 0 0 0 0.0658854 0 0 0 0 0.0730469 0 0 0 0 0.1375 0 0 0 0.08 0"/>
<feBlend mode="normal" in2="BackgroundImageFix" result="effect1_dropShadow_3013_10"/>
<feBlend mode="normal" in="SourceGraphic" in2="effect1_dropShadow_3013_10" result="shape"/>
</filter>
<filter id="filter2_d_3013_10" x="107.2" y="1.10791" width="69.5999" height="68.4575" filterUnits="userSpaceOnUse" color-interpolation-filters="sRGB">
<feFlood flood-opacity="0" result="BackgroundImageFix"/>
<feColorMatrix in="SourceAlpha" type="matrix" values="0 0 0 0 0 0 0 0 0 0 0 0 0 0 0 0 0 0 127 0" result="hardAlpha"/>
<feOffset dy="13"/>
<feGaussianBlur stdDeviation="9"/>
<feColorMatrix type="matrix" values="0 0 0 0 0.0658854 0 0 0 0 0.0730469 0 0 0 0 0.1375 0 0 0 0.08 0"/>
<feBlend mode="normal" in2="BackgroundImageFix" result="effect1_dropShadow_3013_10"/>
<feBlend mode="normal" in="SourceGraphic" in2="effect1_dropShadow_3013_10" result="shape"/>
</filter>
<filter id="filter3_d_3013_10" x="161" y="0.332275" width="69.5999" height="68.4575" filterUnits="userSpaceOnUse" color-interpolation-filters="sRGB">
<feFlood flood-opacity="0" result="BackgroundImageFix"/>
<feColorMatrix in="SourceAlpha" type="matrix" values="0 0 0 0 0 0 0 0 0 0 0 0 0 0 0 0 0 0 127 0" result="hardAlpha"/>
<feOffset dy="13"/>
<feGaussianBlur stdDeviation="9"/>
<feColorMatrix type="matrix" values="0 0 0 0 0.0658854 0 0 0 0 0.0730469 0 0 0 0 0.1375 0 0 0 0.08 0"/>
<feBlend mode="normal" in2="BackgroundImageFix" result="effect1_dropShadow_3013_10"/>
<feBlend mode="normal" in="SourceGraphic" in2="effect1_dropShadow_3013_10" result="shape"/>
</filter>
</defs>
</svg>
