<svg width="465" height="112" viewBox="0 0 465 112" fill="none" xmlns="http://www.w3.org/2000/svg">
<path d="M66.9102 7.26758L56.2783 24.8574C56.167 23.4473 55.9072 21.833 55.499 20.0146C55.0908 18.1592 54.4043 16.415 53.4395 14.7822C52.5117 13.1494 51.2129 11.7764 49.543 10.6631C47.9102 9.5127 45.8135 8.9375 43.2529 8.9375C40.6182 8.9375 38.5029 9.45703 36.9072 10.4961C35.3115 11.5352 34.0869 13.0938 33.2334 15.1719C32.3799 17.25 31.8047 19.8291 31.5078 22.9092C31.2109 25.9893 31.0625 29.5703 31.0625 33.6523H50.5449V41.1113H31.0625V98H12.1924V41.1113H0.50293V33.6523H12.1924C12.1924 27.752 12.8232 22.6865 14.085 18.4561C15.3467 14.2256 17.2578 10.7559 19.8184 8.04688C22.3789 5.30078 25.5889 3.29688 29.4482 2.03516C33.3447 0.736328 37.8906 0.0869141 43.0859 0.0869141C46.2031 0.0869141 48.9863 0.30957 51.4355 0.754883C53.9219 1.16309 56.1113 1.71973 58.0039 2.4248C59.9336 3.09277 61.6221 3.85352 63.0693 4.70703C64.5166 5.56055 65.7969 6.41406 66.9102 7.26758ZM122.574 98H103.76V90.3184C101.533 93.3613 98.8428 95.625 95.6885 97.1094C92.5713 98.5566 89.1387 99.2803 85.3906 99.2803C80.4922 99.2803 76.1133 98.4082 72.2539 96.6641C68.3945 94.9199 65.1289 92.5449 62.457 89.5391C59.7852 86.4961 57.7441 82.9336 56.334 78.8516C54.9238 74.7695 54.2188 70.3906 54.2188 65.7148C54.2188 61.0391 54.9238 56.6602 56.334 52.5781C57.7441 48.4961 59.7852 44.9521 62.457 41.9463C65.1289 38.9033 68.3945 36.5098 72.2539 34.7656C76.1133 33.0215 80.4922 32.1494 85.3906 32.1494C87.877 32.1494 90.2334 32.5205 92.46 33.2627C94.7236 34.0049 96.7832 35.0625 98.6387 36.4355C100.531 37.7715 102.183 39.4043 103.593 41.334C105.04 43.2266 106.172 45.3418 106.988 47.6797L115.338 33.708H122.574V98ZM103.648 65.7148C103.648 64.0449 103.556 62.2822 103.37 60.4268C103.222 58.5713 102.943 56.7344 102.535 54.916C102.127 53.0977 101.552 51.3721 100.81 49.7393C100.104 48.0693 99.1768 46.6035 98.0264 45.3418C96.9131 44.043 95.5586 43.0225 93.9629 42.2803C92.3672 41.5381 90.5117 41.167 88.3965 41.167C86.2812 41.167 84.4443 41.5566 82.8857 42.3359C81.3271 43.0781 79.9912 44.0986 78.8779 45.3975C77.7646 46.6592 76.8369 48.125 76.0947 49.7949C75.3896 51.4648 74.833 53.209 74.4248 55.0273C74.0166 56.8457 73.7197 58.6826 73.5342 60.5381C73.3857 62.3564 73.3115 64.082 73.3115 65.7148C73.3115 67.3477 73.3857 69.0918 73.5342 70.9473C73.7197 72.8027 74.0166 74.6396 74.4248 76.458C74.833 78.2764 75.3896 80.0205 76.0947 81.6904C76.8369 83.3604 77.7646 84.8447 78.8779 86.1436C79.9912 87.4053 81.3271 88.4258 82.8857 89.2051C84.4443 89.9473 86.2812 90.3184 88.3965 90.3184C90.3262 90.3184 92.0332 89.9287 93.5176 89.1494C95.0391 88.333 96.3564 87.2568 97.4697 85.9209C98.6201 84.585 99.585 83.0635 100.364 81.3564C101.144 79.6494 101.774 77.8867 102.257 76.0684C102.739 74.25 103.092 72.4502 103.314 70.6689C103.537 68.8506 103.648 67.1992 103.648 65.7148ZM193.657 77.46C193.657 80.2803 193.249 82.7852 192.433 84.9746C191.616 87.1641 190.503 89.0752 189.093 90.708C187.683 92.3037 186.013 93.6582 184.083 94.7715C182.153 95.8477 180.075 96.7197 177.849 97.3877C175.659 98.0557 173.358 98.5381 170.946 98.835C168.534 99.1318 166.141 99.2803 163.766 99.2803C160.574 99.2803 157.754 99.0762 155.305 98.668C152.855 98.2598 150.518 97.6104 148.291 96.7197C146.064 95.792 143.838 94.6045 141.611 93.1572C139.422 91.71 136.973 89.9473 134.264 87.8691L145.229 78.9072C146.231 80.7998 147.549 82.5254 149.182 84.084C150.852 85.6055 152.577 86.9229 154.358 88.0361C156.14 89.1494 157.865 90.0029 159.535 90.5967C161.205 91.1904 162.56 91.4873 163.599 91.4873C164.452 91.4873 165.417 91.4688 166.493 91.4316C167.569 91.3574 168.664 91.2461 169.777 91.0977C170.891 90.9121 171.985 90.6523 173.062 90.3184C174.138 89.9844 175.084 89.5391 175.9 88.9824C176.754 88.3887 177.422 87.665 177.904 86.8115C178.424 85.9209 178.684 84.8633 178.684 83.6387C178.684 82.377 178.35 81.2822 177.682 80.3545C177.051 79.3896 176.216 78.5547 175.177 77.8496C174.138 77.1445 172.95 76.5508 171.614 76.0684C170.278 75.5859 168.924 75.1592 167.551 74.7881C166.215 74.417 164.916 74.1016 163.654 73.8418C162.393 73.5449 161.298 73.2666 160.37 73.0068C158.663 72.5244 156.863 72.042 154.971 71.5596C153.078 71.04 151.204 70.4648 149.349 69.834C147.493 69.166 145.712 68.3867 144.005 67.4961C142.335 66.6055 140.851 65.5479 139.552 64.3232C138.29 63.0615 137.27 61.5957 136.49 59.9258C135.748 58.2188 135.377 56.2334 135.377 53.9697C135.377 49.8135 136.193 46.3438 137.826 43.5605C139.496 40.7402 141.686 38.4951 144.395 36.8252C147.104 35.1182 150.184 33.9121 153.635 33.207C157.086 32.502 160.593 32.1494 164.155 32.1494C166.604 32.1494 169.184 32.4092 171.893 32.9287C174.602 33.4111 177.236 34.1533 179.797 35.1553C182.357 36.1201 184.751 37.3076 186.978 38.7178C189.204 40.1279 191.06 41.7422 192.544 43.5605L181.578 52.5781C180.762 50.3516 179.686 48.4404 178.35 46.8447C177.051 45.249 175.622 43.9502 174.063 42.9482C172.542 41.9092 170.965 41.1484 169.332 40.666C167.736 40.1836 166.252 39.9424 164.879 39.9424C163.543 39.9424 162.04 39.998 160.37 40.1094C158.7 40.2207 157.123 40.5361 155.639 41.0557C154.191 41.5752 152.948 42.373 151.909 43.4492C150.907 44.4883 150.406 45.9355 150.406 47.791C150.406 49.127 150.703 50.2773 151.297 51.2422C151.928 52.1699 152.744 52.9863 153.746 53.6914C154.748 54.3594 155.88 54.9346 157.142 55.417C158.44 55.8623 159.758 56.2705 161.094 56.6416C162.43 56.9756 163.729 57.2725 164.99 57.5322C166.252 57.792 167.384 58.0703 168.386 58.3672C170.093 58.8496 171.893 59.3506 173.785 59.8701C175.715 60.3525 177.607 60.9277 179.463 61.5957C181.318 62.2266 183.1 62.9873 184.807 63.8779C186.551 64.7314 188.072 65.7891 189.371 67.0508C190.67 68.3125 191.709 69.7969 192.488 71.5039C193.268 73.1738 193.657 75.1592 193.657 77.46ZM271.309 61.1504C271.309 65.4922 270.771 70.0195 269.694 74.7324C268.655 79.4453 267.189 84.0654 265.297 88.5928C263.404 93.1201 261.141 97.3691 258.506 101.34C255.871 105.348 252.977 108.799 249.822 111.693L242.753 107.853C243.755 105.997 244.701 103.919 245.592 101.618C246.482 99.3174 247.28 96.8867 247.985 94.3262C248.728 91.7285 249.377 89.0566 249.934 86.3105C250.527 83.5645 251.01 80.8555 251.381 78.1836C251.789 75.4746 252.086 72.8584 252.271 70.335C252.494 67.7744 252.605 65.3994 252.605 63.21C252.605 61.7627 252.55 60.2227 252.438 58.5898C252.327 56.9199 252.086 55.2686 251.715 53.6357C251.381 51.9658 250.917 50.3701 250.323 48.8486C249.729 47.3271 248.932 45.9912 247.93 44.8408C246.965 43.6904 245.777 42.7627 244.367 42.0576C242.994 41.3525 241.361 41 239.469 41C237.613 41 235.962 41.4268 234.515 42.2803C233.067 43.0967 231.787 44.1914 230.674 45.5645C229.561 46.9004 228.596 48.4404 227.779 50.1846C227 51.9287 226.351 53.7285 225.831 55.584C225.349 57.4023 224.996 59.2021 224.773 60.9834C224.551 62.7646 224.439 64.3604 224.439 65.7705V98H205.569V10.0508H224.384V43.1709C226.796 39.6455 229.746 36.9365 233.234 35.0439C236.76 33.1143 240.656 32.1494 244.924 32.1494C249.377 32.1494 253.255 32.873 256.558 34.3203C259.86 35.7676 262.606 37.79 264.796 40.3877C266.985 42.9482 268.618 46.0098 269.694 49.5723C270.771 53.0977 271.309 56.957 271.309 61.1504ZM303.482 18.1777C303.482 19.5879 303.204 20.9238 302.647 22.1855C302.128 23.4473 301.404 24.542 300.477 25.4697C299.549 26.3975 298.454 27.1396 297.192 27.6963C295.931 28.2158 294.595 28.4756 293.185 28.4756C291.774 28.4756 290.438 28.2158 289.177 27.6963C287.952 27.1396 286.876 26.3975 285.948 25.4697C285.021 24.542 284.278 23.4473 283.722 22.1855C283.202 20.9238 282.942 19.5879 282.942 18.1777C282.942 16.7676 283.202 15.4502 283.722 14.2256C284.278 12.9639 285.021 11.8691 285.948 10.9414C286.876 10.0137 287.952 9.29004 289.177 8.77051C290.438 8.21387 291.774 7.93555 293.185 7.93555C294.595 7.93555 295.931 8.21387 297.192 8.77051C298.454 9.29004 299.549 10.0137 300.477 10.9414C301.404 11.8691 302.128 12.9639 302.647 14.2256C303.204 15.4502 303.482 16.7676 303.482 18.1777ZM302.647 98H283.777V33.7637H302.647V98ZM386.366 65.7148C386.366 69.0547 385.921 72.1904 385.03 75.1221C384.14 78.0537 382.896 80.7627 381.301 83.249C379.742 85.7354 377.85 87.9805 375.623 89.9844C373.396 91.9512 370.947 93.6211 368.275 94.9941C365.641 96.3672 362.802 97.4248 359.759 98.167C356.753 98.9092 353.654 99.2803 350.463 99.2803C347.271 99.2803 344.173 98.9092 341.167 98.167C338.161 97.4248 335.322 96.3672 332.65 94.9941C330.016 93.6211 327.585 91.9512 325.358 89.9844C323.132 87.9805 321.221 85.7354 319.625 83.249C318.066 80.7627 316.842 78.0537 315.951 75.1221C315.061 72.1533 314.615 69.0176 314.615 65.7148C314.615 62.4121 315.061 59.2949 315.951 56.3633C316.842 53.3945 318.066 50.667 319.625 48.1807C321.221 45.6943 323.132 43.4678 325.358 41.501C327.585 39.4971 330.016 37.8086 332.65 36.4355C335.322 35.0625 338.161 34.0049 341.167 33.2627C344.173 32.5205 347.271 32.1494 350.463 32.1494C353.654 32.1494 356.753 32.5205 359.759 33.2627C362.802 34.0049 365.641 35.0625 368.275 36.4355C370.947 37.8086 373.396 39.4971 375.623 41.501C377.85 43.4678 379.742 45.6943 381.301 48.1807C382.896 50.667 384.14 53.3945 385.03 56.3633C385.921 59.2949 386.366 62.4121 386.366 65.7148ZM367.218 65.7148C367.218 63.9336 367.106 62.0596 366.884 60.0928C366.698 58.0889 366.364 56.1406 365.882 54.248C365.399 52.3184 364.731 50.4814 363.878 48.7373C363.062 46.9561 362.041 45.416 360.816 44.1172C359.592 42.7812 358.126 41.7236 356.419 40.9443C354.712 40.1279 352.727 39.7197 350.463 39.7197C348.311 39.7197 346.399 40.1279 344.729 40.9443C343.06 41.7607 341.594 42.8555 340.332 44.2285C339.107 45.5645 338.068 47.123 337.215 48.9043C336.398 50.6855 335.73 52.541 335.211 54.4707C334.691 56.3633 334.32 58.293 334.098 60.2598C333.875 62.1895 333.764 64.0078 333.764 65.7148C333.764 67.4219 333.875 69.2588 334.098 71.2256C334.32 73.1553 334.691 75.085 335.211 77.0146C335.73 78.9443 336.398 80.7998 337.215 82.5811C338.068 84.3252 339.107 85.8838 340.332 87.2568C341.594 88.5928 343.06 89.6689 344.729 90.4854C346.399 91.3018 348.311 91.71 350.463 91.71C352.689 91.71 354.656 91.3203 356.363 90.541C358.07 89.7246 359.536 88.6484 360.761 87.3125C362.022 85.9766 363.062 84.4365 363.878 82.6924C364.694 80.9482 365.344 79.1113 365.826 77.1816C366.346 75.252 366.698 73.3037 366.884 71.3369C367.106 69.3701 367.218 67.4961 367.218 65.7148ZM464.018 61.1504C464.018 65.4922 463.479 70.0195 462.403 74.7324C461.364 79.4453 459.898 84.0654 458.006 88.5928C456.113 93.1201 453.85 97.3691 451.215 101.34C448.58 105.348 445.686 108.799 442.531 111.693L435.462 107.853C436.464 105.997 437.41 103.919 438.301 101.618C439.191 99.3174 439.989 96.8867 440.694 94.3262C441.437 91.7285 442.086 89.0566 442.643 86.3105C443.236 83.5645 443.719 80.8555 444.09 78.1836C444.498 75.4746 444.795 72.8584 444.98 70.335C445.203 67.7744 445.314 65.3994 445.314 63.21C445.314 61.7627 445.259 60.2227 445.147 58.5898C445.036 56.9199 444.795 55.2686 444.424 53.6357C444.09 51.9658 443.626 50.3701 443.032 48.8486C442.438 47.3271 441.641 45.9912 440.639 44.8408C439.674 43.6904 438.486 42.7627 437.076 42.0576C435.703 41.3525 434.07 41 432.178 41C430.322 41 428.671 41.4268 427.224 42.2803C425.776 43.0967 424.496 44.1914 423.383 45.5645C422.27 46.9004 421.305 48.4404 420.488 50.1846C419.709 51.9287 419.06 53.7285 418.54 55.584C418.058 57.4023 417.705 59.2021 417.482 60.9834C417.26 62.7646 417.148 64.3604 417.148 65.7705V98H398.278V33.708H405.515L414.143 48.6816C415.182 46.1953 416.48 43.9316 418.039 41.8906C419.598 39.8496 421.36 38.1055 423.327 36.6582C425.294 35.2109 427.465 34.0977 429.84 33.3184C432.252 32.5391 434.85 32.1494 437.633 32.1494C442.086 32.1494 445.964 32.873 449.267 34.3203C452.569 35.7676 455.315 37.79 457.505 40.3877C459.694 42.9482 461.327 46.0098 462.403 49.5723C463.479 53.0977 464.018 56.957 464.018 61.1504Z" fill="black"/>
</svg>
